<?xml version="1.0" encoding="utf-8"?>
<!-- Generator: Adobe Illustrator 18.1.0, SVG Export Plug-In . SVG Version: 6.00 Build 0)  -->
<!DOCTYPE svg PUBLIC "-//W3C//DTD SVG 1.1//EN" "http://www.w3.org/Graphics/SVG/1.1/DTD/svg11.dtd">
<svg version="1.1" id="Layer_1" xmlns="http://www.w3.org/2000/svg" xmlns:xlink="http://www.w3.org/1999/xlink" x="0px" y="0px"
	 viewBox="0 0 610 610" enable-background="new 0 0 610 610" xml:space="preserve" width="610" height="610">
<g>
	<path fill="#FFFFFF" d="M304,599.9c-39.9,0-78.7-7.8-115.2-23.3c-17.5-7.4-34.5-16.6-50.3-27.3c-15.7-10.6-30.4-22.7-43.8-36.1
		s-25.5-28.1-36.1-43.8c-10.7-15.8-19.9-32.7-27.3-50.3C15.9,382.7,8.1,343.9,8.1,304s7.8-78.7,23.3-115.2
		c7.4-17.5,16.6-34.5,27.3-50.3c10.6-15.7,22.7-30.4,36.1-43.8s28.1-25.5,43.8-36.1c15.8-10.7,32.7-19.9,50.3-27.3
		C225.3,15.9,264,8.1,304,8.1c39.9,0,78.7,7.8,115.2,23.3c17.5,7.4,34.5,16.6,50.3,27.3c15.7,10.6,30.4,22.7,43.8,36.1
		s25.5,28.1,36.1,43.8c10.7,15.8,19.9,32.7,27.3,50.3c15.4,36.5,23.3,75.3,23.3,115.2s-7.8,78.7-23.3,115.2
		c-7.4,17.5-16.6,34.5-27.3,50.3c-10.6,15.7-22.7,30.4-36.1,43.8c-13.4,13.4-28.1,25.5-43.8,36.1c-15.8,10.7-32.7,19.9-50.3,27.3
		C382.7,592.1,343.9,599.9,304,599.9z"/>
	<path fill="#5494CB" d="M304,48.1c34.6,0,68.1,6.8,99.6,20.1c15.1,6.4,29.7,14.3,43.5,23.6c13.5,9.1,26.2,19.6,37.9,31.2
		c11.6,11.6,22.1,24.3,31.3,37.9c9.2,13.7,17.2,28.3,23.6,43.5c13.3,31.5,20.1,65.1,20.1,99.6s-6.8,68.1-20.1,99.6
		c-6.4,15.1-14.3,29.7-23.6,43.5c-9.1,13.5-19.6,26.2-31.2,37.9c-11.6,11.6-24.3,22.1-37.9,31.3c-13.7,9.2-28.3,17.2-43.5,23.6
		c-31.5,13.3-65.1,20.1-99.6,20.1s-68.1-6.8-99.6-20.1c-15.1-6.4-29.7-14.3-43.5-23.6c-13.5-9.1-26.2-19.6-37.9-31.2
		c-11.6-11.6-22.1-24.3-31.3-37.9c-9.2-13.7-17.2-28.3-23.6-43.5c-13.3-31.5-20.1-65.1-20.1-99.6s6.8-68.1,20.1-99.6
		c6.4-15.1,14.3-29.7,23.6-43.5c9.1-13.5,19.6-26.2,31.2-37.9c11.6-11.6,24.3-22.1,37.9-31.3c13.7-9.2,28.3-17.2,43.5-23.6
		C235.9,54.9,269.4,48.1,304,48.1 M304,8.1c-40,0-78.7,7.8-115.2,23.3c-17.5,7.4-34.5,16.6-50.3,27.3
		c-15.6,10.6-30.4,22.7-43.8,36.1c-13.4,13.4-25.5,28.1-36.1,43.8c-10.7,15.8-19.9,32.7-27.3,50.3C15.9,225.3,8.1,264.1,8.1,304
		s7.8,78.7,23.3,115.2c7.4,17.5,16.6,34.5,27.3,50.3c10.6,15.6,22.7,30.4,36.1,43.8c13.4,13.4,28.1,25.5,43.8,36.1
		c15.8,10.7,32.7,19.9,50.3,27.3c36.5,15.4,75.3,23.3,115.2,23.3s78.7-7.8,115.2-23.3c17.5-7.4,34.5-16.6,50.3-27.3
		c15.6-10.6,30.4-22.7,43.8-36.1c13.4-13.4,25.5-28.1,36.1-43.8c10.7-15.8,19.9-32.7,27.3-50.3c15.4-36.5,23.3-75.3,23.3-115.2
		s-7.8-78.7-23.3-115.2c-7.4-17.5-16.6-34.5-27.3-50.3c-10.6-15.6-22.7-30.4-36.1-43.8c-13.4-13.4-28.1-25.5-43.8-36.1
		c-15.8-10.7-32.7-19.9-50.3-27.3C382.7,15.9,343.9,8.1,304,8.1L304,8.1z"/>
</g>
<path fill="#5494CB" d="M371.3,269.7c0-25.9-9.2-48.1-27.7-66.6c-18.4-18.5-40.6-27.7-66.6-27.7s-48.1,9.2-66.6,27.7
	c-18.4,18.4-27.7,40.6-27.7,66.6c0,25.9,9.2,48.1,27.7,66.6c18.4,18.4,40.6,27.7,66.6,27.7s48.1-9.2,66.6-27.7
	C362.1,317.9,371.3,295.7,371.3,269.7z M479,444.7c0,7.3-2.7,13.6-8,18.9c-5.3,5.3-11.6,8-18.9,8c-7.6,0-13.9-2.7-18.9-8L361,391.7
	c-25.1,17.4-53.1,26.1-83.9,26.1c-20,0-39.2-3.9-57.5-11.7c-18.3-7.8-34.1-18.3-47.3-31.5s-23.7-29-31.5-47.3
	c-7.8-18.3-11.7-37.5-11.7-57.5c0-20,3.9-39.2,11.7-57.5s18.3-34.1,31.5-47.3c13.2-13.2,29-23.7,47.3-31.5
	c18.3-7.8,37.5-11.7,57.5-11.7s39.2,3.9,57.5,11.7s34.1,18.3,47.3,31.5c13.2,13.2,23.7,29,31.5,47.3c7.8,18.3,11.7,37.5,11.7,57.5
	c0,30.8-8.7,58.8-26.1,83.9l72.1,72.1C476.3,430.9,479,437.3,479,444.7z"/>
</svg>
